<svg xmlns="http://www.w3.org/2000/svg" width="1152.6" height="424"><g transform="translate(-65.2,30)"><path class="link" d="M553.8000000000001,0C553.8000000000001,47.375 255.60000000000002,47.375 255.60000000000002,94.75" style="opacity: 1; fill: none; stroke: rgb(204, 204, 204);"/><path class="link" d="M553.8000000000001,0C553.8000000000001,47.375 553.8000000000001,47.375 553.8000000000001,94.75" style="opacity: 1; fill: none; stroke: rgb(204, 204, 204);"/><path class="link" d="M553.8000000000001,0C553.8000000000001,47.375 852,47.375 852,94.75" style="opacity: 1; fill: none; stroke: rgb(204, 204, 204);"/><path class="link" d="M255.60000000000002,94.75C255.60000000000002,142.125 85.2,142.125 85.2,189.5" style="opacity: 1; fill: none; stroke: rgb(204, 204, 204);"/><path class="link" d="M255.60000000000002,94.75C255.60000000000002,142.125 170.4,142.125 170.4,189.5" style="opacity: 1; fill: none; stroke: rgb(204, 204, 204);"/><path class="link" d="M255.60000000000002,94.75C255.60000000000002,142.125 255.60000000000002,142.125 255.60000000000002,189.5" style="opacity: 1; fill: none; stroke: rgb(204, 204, 204);"/><path class="link" d="M255.60000000000002,94.75C255.60000000000002,142.125 340.8,142.125 340.8,189.5" style="opacity: 1; fill: none; stroke: rgb(204, 204, 204);"/><path class="link" d="M255.60000000000002,94.75C255.60000000000002,142.125 426,142.125 426,189.5" style="opacity: 1; fill: none; stroke: rgb(204, 204, 204);"/><path class="link" d="M340.8,189.5C340.8,236.875 340.8,236.875 340.8,284.25" style="opacity: 1; fill: none; stroke: rgb(204, 204, 204);"/><path class="link" d="M852,94.75C852,142.125 766.8000000000001,142.125 766.8000000000001,189.5" style="opacity: 1; fill: none; stroke: rgb(204, 204, 204);"/><path class="link" d="M852,94.75C852,142.125 852,142.125 852,189.5" style="opacity: 1; fill: none; stroke: rgb(204, 204, 204);"/><path class="link" d="M852,94.75C852,142.125 937.2,142.125 937.2,189.5" style="opacity: 1; fill: none; stroke: rgb(204, 204, 204);"/><path class="link" d="M852,189.5C852,236.875 511.20000000000005,236.875 511.20000000000005,284.25" style="opacity: 1; fill: none; stroke: rgb(204, 204, 204);"/><path class="link" d="M852,189.5C852,236.875 596.4,236.875 596.4,284.25" style="opacity: 1; fill: none; stroke: rgb(204, 204, 204);"/><path class="link" d="M852,189.5C852,236.875 724.2,236.875 724.2,284.25" style="opacity: 1; fill: none; stroke: rgb(204, 204, 204);"/><path class="link" d="M852,189.5C852,236.875 852,236.875 852,284.25" style="opacity: 1; fill: none; stroke: rgb(204, 204, 204);"/><path class="link" d="M852,189.5C852,236.875 979.8000000000001,236.875 979.8000000000001,284.25" style="opacity: 1; fill: none; stroke: rgb(204, 204, 204);"/><path class="link" d="M852,189.5C852,236.875 1107.6000000000001,236.875 1107.6000000000001,284.25" style="opacity: 1; fill: none; stroke: rgb(204, 204, 204);"/><path class="link" d="M852,189.5C852,236.875 1192.8,236.875 1192.8,284.25" style="opacity: 1; fill: none; stroke: rgb(204, 204, 204);"/><path class="link" d="M596.4,284.25C596.4,331.625 553.8000000000001,331.625 553.8000000000001,379" style="opacity: 1; fill: none; stroke: rgb(204, 204, 204);"/><path class="link" d="M596.4,284.25C596.4,331.625 639,331.625 639,379" style="opacity: 1; fill: none; stroke: rgb(204, 204, 204);"/><path class="link" d="M852,284.25C852,331.625 809.4,331.625 809.4,379" style="opacity: 1; fill: none; stroke: rgb(204, 204, 204);"/><path class="link" d="M852,284.25C852,331.625 894.6,331.625 894.6,379" style="opacity: 1; fill: none; stroke: rgb(204, 204, 204);"/><path class="link" d="M1107.6000000000001,284.25C1107.6000000000001,331.625 1065,331.625 1065,379" style="opacity: 1; fill: none; stroke: rgb(204, 204, 204);"/><path class="link" d="M1107.6000000000001,284.25C1107.6000000000001,331.625 1150.2,331.625 1150.2,379" style="opacity: 1; fill: none; stroke: rgb(204, 204, 204);"/><g class="node element" transform="translate(553.7999877929688,0)" style="opacity: 1; font-size: 11px; font-weight: bold;"><circle r="10" style="stroke-width: 1.5px; fill: steelblue; stroke: rgb(53, 94, 149);"/><text text-anchor="middle" dy="-15">html</text></g><g class="node element" transform="translate(255.60000610351562,94.75)" style="opacity: 1; font-size: 11px; font-weight: bold;"><circle r="10" style="stroke-width: 1.5px; fill: steelblue; stroke: rgb(53, 94, 149);"/><text text-anchor="middle" dy="-15">head</text></g><g class="node text indent" transform="translate(85.19999694824219,189.5)" style="opacity: 1; font-size: 11px; font-weight: bold;"><circle r="10" style="stroke-width: 1.5px; fill: rgb(255, 204, 0); stroke: orange;"/><text text-anchor="middle" dy="-15">#text</text></g><g class="node element" transform="translate(170.39999389648438,189.5)" style="opacity: 1; font-size: 11px; font-weight: bold;"><circle r="10" style="stroke-width: 1.5px; fill: steelblue; stroke: rgb(53, 94, 149);"/><text text-anchor="middle" dy="-15">meta</text></g><g class="node text indent" transform="translate(255.60000610351562,189.5)" style="opacity: 1; font-size: 11px; font-weight: bold;"><circle r="10" style="stroke-width: 1.5px; fill: rgb(255, 204, 0); stroke: orange;"/><text text-anchor="middle" dy="-15">#text</text></g><g class="node element" transform="translate(340.79998779296875,189.5)" style="opacity: 1; font-size: 11px; font-weight: bold;"><circle r="10" style="stroke-width: 1.5px; fill: steelblue; stroke: rgb(53, 94, 149);"/><text text-anchor="middle" dy="-15">title</text></g><g class="node text" transform="translate(340.79998779296875,284.25)" style="opacity: 1; font-size: 11px; font-weight: bold;"><circle r="10" style="stroke-width: 1.5px; fill: rgb(80, 180, 86); stroke: rgb(13, 149, 44);"/><text text-anchor="middle" dy="-15">#text</text></g><g class="node text indent" transform="translate(426,189.5)" style="opacity: 1; font-size: 11px; font-weight: bold;"><circle r="10" style="stroke-width: 1.5px; fill: rgb(255, 204, 0); stroke: orange;"/><text text-anchor="middle" dy="-15">#text</text></g><g class="node text indent" transform="translate(553.7999877929688,94.75)" style="opacity: 1; font-size: 11px; font-weight: bold;"><circle r="10" style="stroke-width: 1.5px; fill: rgb(255, 204, 0); stroke: orange;"/><text text-anchor="middle" dy="-15">#text</text></g><g class="node element" transform="translate(852,94.75)" style="opacity: 1; font-size: 11px; font-weight: bold;"><circle r="10" style="stroke-width: 1.5px; fill: steelblue; stroke: rgb(53, 94, 149);"/><text text-anchor="middle" dy="-15">body</text></g><g class="node text indent" transform="translate(766.7999877929688,189.5)" style="opacity: 1; font-size: 11px; font-weight: bold;"><circle r="10" style="stroke-width: 1.5px; fill: rgb(255, 204, 0); stroke: orange;"/><text text-anchor="middle" dy="-15">#text</text></g><g class="node element" transform="translate(852,189.5)" style="opacity: 1; font-size: 11px; font-weight: bold;"><circle r="10" style="stroke-width: 1.5px; fill: steelblue; stroke: rgb(53, 94, 149);"/><text text-anchor="middle" dy="-15">ul#div_kitty1</text></g><g class="node text" transform="translate(511.20001220703125,284.25)" style="opacity: 1; font-size: 11px; font-weight: bold;"><circle r="10" style="stroke-width: 1.5px; fill: rgb(80, 180, 86); stroke: rgb(13, 149, 44);"/><text text-anchor="middle" dy="-15">#text</text></g><g class="node text indent" transform="translate(937.2000122070312,189.5)" style="opacity: 1; font-size: 11px; font-weight: bold;"><circle r="10" style="stroke-width: 1.5px; fill: rgb(255, 204, 0); stroke: orange;"/><text text-anchor="middle" dy="-15">#text</text></g><g class="node element" transform="translate(596.4000244140625,284.25)" style="opacity: 1; font-size: 11px; font-weight: bold;"><circle r="10" style="stroke-width: 1.5px; fill: steelblue; stroke: rgb(53, 94, 149);"/><text text-anchor="middle" dy="-15">li#k1</text></g><g class="node element" transform="translate(553.7999877929688,379)" style="opacity: 1; font-size: 11px; font-weight: bold;"><circle r="10" style="stroke-width: 1.5px; fill: steelblue; stroke: rgb(53, 94, 149);"/><text text-anchor="middle" dy="-15">img.good-kid</text></g><g class="node text" transform="translate(639,379)" style="opacity: 1; font-size: 11px; font-weight: bold;"><circle r="10" style="stroke-width: 1.5px; fill: rgb(80, 180, 86); stroke: rgb(13, 149, 44);"/><text text-anchor="middle" dy="-15">#text</text></g><g class="node text indent" transform="translate(724.2000122070312,284.25)" style="opacity: 1; font-size: 11px; font-weight: bold;"><circle r="10" style="stroke-width: 1.5px; fill: rgb(255, 204, 0); stroke: orange;"/><text text-anchor="middle" dy="-15">#text</text></g><g class="node element" transform="translate(852,284.25)" style="opacity: 1; font-size: 11px; font-weight: bold;"><circle r="10" style="stroke-width: 1.5px; fill: steelblue; stroke: rgb(53, 94, 149);"/><text text-anchor="middle" dy="-15">li#k2</text></g><g class="node element" transform="translate(809.4000244140625,379)" style="opacity: 1; font-size: 11px; font-weight: bold;"><circle r="10" style="stroke-width: 1.5px; fill: steelblue; stroke: rgb(53, 94, 149);"/><text text-anchor="middle" dy="-15">img.good-kid</text></g><g class="node text" transform="translate(894.5999755859375,379)" style="opacity: 1; font-size: 11px; font-weight: bold;"><circle r="10" style="stroke-width: 1.5px; fill: rgb(80, 180, 86); stroke: rgb(13, 149, 44);"/><text text-anchor="middle" dy="-15">#text</text></g><g class="node text indent" transform="translate(979.7999877929688,284.25)" style="opacity: 1; font-size: 11px; font-weight: bold;"><circle r="10" style="stroke-width: 1.5px; fill: rgb(255, 204, 0); stroke: orange;"/><text text-anchor="middle" dy="-15">#text</text></g><g class="node element" transform="translate(1107.5999755859375,284.25)" style="opacity: 1; font-size: 11px; font-weight: bold;"><circle r="10" style="stroke-width: 1.5px; fill: steelblue; stroke: rgb(53, 94, 149);"/><text text-anchor="middle" dy="-15">li#k3</text></g><g class="node element" transform="translate(1065,379)" style="opacity: 1; font-size: 11px; font-weight: bold;"><circle r="10" style="stroke-width: 1.5px; fill: steelblue; stroke: rgb(53, 94, 149);"/><text text-anchor="middle" dy="-15">img.good-kid</text></g><g class="node text" transform="translate(1150.199951171875,379)" style="opacity: 1; font-size: 11px; font-weight: bold;"><circle r="10" style="stroke-width: 1.5px; fill: rgb(80, 180, 86); stroke: rgb(13, 149, 44);"/><text text-anchor="middle" dy="-15">#text</text></g><g class="node text indent" transform="translate(1192.800048828125,284.25)" style="opacity: 1; font-size: 11px; font-weight: bold;"><circle r="10" style="stroke-width: 1.5px; fill: rgb(255, 204, 0); stroke: orange;"/><text text-anchor="middle" dy="-15">#text</text></g></g></svg>